<svg width="18" height="17" viewBox="0 0 18 17" xmlns="http://www.w3.org/2000/svg">
<path d="M14.5808 2.15769C13.0116 0.719232 11.1154 0 8.76153 0C6.3423 0 4.25 0.784616 2.55 2.41923C0.849996 4.05385 0 6.08077 0 8.5C0 10.8538 0.784623 12.8154 2.41924 14.5154C4.05385 16.2154 6.21155 17 9.02309 17C10.6577 17 12.2923 16.6731 13.9269 15.9538C14.45 15.7577 14.7115 15.1038 14.5154 14.5808C14.3192 14.0577 13.6654 13.7962 13.1423 13.9923C11.7692 14.5808 10.3962 14.9077 9.08846 14.9077C6.99615 14.9077 5.36154 14.2538 4.18461 12.9462C3.00769 11.6385 2.41924 10.1346 2.41924 8.43462C2.41924 6.53846 3.07308 4.96923 4.25 3.72692C5.49231 2.48461 6.99615 1.83077 8.82692 1.83077C10.4615 1.83077 11.9 2.35385 13.0769 3.4C14.2538 4.44615 14.7769 5.75385 14.7769 7.32308C14.7769 8.36923 14.5154 9.28462 13.9923 10.0038C13.4692 10.7231 12.9462 11.05 12.3577 11.05C12.0308 11.05 11.9 10.9192 11.9 10.5269C11.9 10.2654 11.9 9.93846 11.9654 9.61154L12.6192 4.31539H10.3962L10.2654 4.83846C9.67693 4.38077 9.08846 4.11923 8.43461 4.11923C7.38846 4.11923 6.47309 4.57692 5.68847 5.42692C4.90385 6.27692 4.57692 7.38846 4.57692 8.69616C4.57692 10.0038 4.90385 11.05 5.62308 11.9C6.27693 12.6846 7.12694 13.0769 8.04232 13.0769C8.89232 13.0769 9.61154 12.75 10.2 12.0308C10.6577 12.6846 11.3115 13.0769 12.2269 13.0769C13.5346 13.0769 14.6462 12.4885 15.6269 11.3769C16.6077 10.2654 17.0654 8.89231 17.0654 7.25769C16.8692 5.29615 16.0846 3.53077 14.5808 2.15769ZM9.41538 10.1346C9.02307 10.6577 8.56539 10.9192 7.97693 10.9192C7.58462 10.9192 7.32309 10.7231 7.06155 10.3308C6.80001 9.93846 6.73463 9.48077 6.73463 8.89231C6.73463 8.17308 6.86539 7.58462 7.19231 7.19231C7.51923 6.73462 7.91155 6.53846 8.36924 6.53846C8.76155 6.53846 9.15385 6.66923 9.48077 7.06154C9.80769 7.38846 9.93847 7.84616 9.93847 8.36923C10.0039 9.02308 9.80769 9.61154 9.41538 10.1346Z"/>
</svg>
