<svg width="12" height="20" viewBox="0 0 12 20" xmlns="http://www.w3.org/2000/svg">
<path d="M11.6095 12.3077C12.0697 11.8395 12.1354 11.1706 11.741 10.5017C11.4123 9.96656 10.8206 9.699 10.1632 9.83278C9.90024 9.89967 9.63727 10.0335 9.3743 10.2341C7.33632 11.6388 4.57519 11.5719 2.53721 10.1672C2.40572 10.1003 2.27424 10.0334 2.14275 9.96656C1.4196 9.63211 0.696451 9.7659 0.302003 10.4348C-0.158187 11.1037 -0.0924536 11.8395 0.499219 12.4415C0.630702 12.5753 0.762184 12.6421 0.827926 12.7759L0.893671 12.8428C1.81405 13.5786 2.93166 14.0468 4.37797 14.2475L3.52333 15.1171C2.80017 15.8529 2.01128 16.6555 1.28812 17.3913C1.0909 17.592 0.827926 17.9264 0.827926 18.3947C0.827926 18.9967 1.15664 19.5987 1.74831 19.8662C1.94554 20 2.14276 20 2.33998 20C2.66869 20 3.06313 19.8662 3.3261 19.5318C4.31222 18.5284 5.10112 17.7258 5.89002 16.9231C5.95576 16.8562 5.95575 16.8562 5.95575 16.8562C5.95575 16.8562 6.0215 16.8562 6.0215 16.9231C6.54743 17.5251 7.1391 18.0602 7.66503 18.6622C7.928 18.9298 8.19096 19.1973 8.45393 19.4649C8.78264 19.7993 9.0456 19.9331 9.44005 19.9331C10.0317 20 10.6891 19.5987 10.9521 18.9967C11.2151 18.4615 11.0836 17.7926 10.6234 17.3913C9.96598 16.7224 9.30857 15.9866 8.58541 15.3177L7.46781 14.1806C8.05948 14.1137 8.7169 13.9799 9.30857 13.7124C10.2947 13.3779 11.0178 12.9097 11.6095 12.3077Z"/>
<path d="M5.95575 10.4348C8.78263 10.4348 11.0836 8.16053 11.0836 5.28428C11.0836 3.87959 10.5576 2.54181 9.57153 1.53846C8.58541 0.535119 7.33633 0 6.0215 0C3.19462 0 0.959412 2.34113 0.89367 5.1505C0.89367 6.55518 1.4196 7.82608 2.40572 8.82943C3.3261 9.89966 4.57519 10.4348 5.95575 10.4348ZM4.50945 3.74582C4.90389 3.34448 5.42982 3.14381 5.95575 3.14381C7.1391 3.14381 7.99374 4.08027 7.99374 5.21739C7.99374 6.42141 7.07336 7.29096 5.95575 7.29096C4.77241 7.29096 3.91778 6.35452 3.91778 5.21739C3.91778 4.68228 4.115 4.14716 4.50945 3.74582Z"/>
<path d="M11.6095 12.3077C12.0697 11.8395 12.1354 11.1706 11.741 10.5017C11.4123 9.96656 10.8206 9.699 10.1632 9.83278C9.90024 9.89967 9.63727 10.0335 9.3743 10.2341C7.33632 11.6388 4.57519 11.5719 2.53721 10.1672C2.40572 10.1003 2.27424 10.0334 2.14275 9.96656C1.4196 9.63211 0.696451 9.7659 0.302003 10.4348C-0.158187 11.1037 -0.0924536 11.8395 0.499219 12.4415C0.630702 12.5753 0.762184 12.6421 0.827926 12.7759L0.893671 12.8428C1.81405 13.5786 2.93166 14.0468 4.37797 14.2475L3.52333 15.1171C2.80017 15.8529 2.01128 16.6555 1.28812 17.3913C1.0909 17.592 0.827926 17.9264 0.827926 18.3947C0.827926 18.9967 1.15664 19.5987 1.74831 19.8662C1.94554 20 2.14276 20 2.33998 20C2.66869 20 3.06313 19.8662 3.3261 19.5318C4.31222 18.5284 5.10112 17.7258 5.89002 16.9231C5.95576 16.8562 5.95575 16.8562 5.95575 16.8562C5.95575 16.8562 6.0215 16.8562 6.0215 16.9231C6.54743 17.5251 7.1391 18.0602 7.66503 18.6622C7.928 18.9298 8.19096 19.1973 8.45393 19.4649C8.78264 19.7993 9.0456 19.9331 9.44005 19.9331C10.0317 20 10.6891 19.5987 10.9521 18.9967C11.2151 18.4615 11.0836 17.7926 10.6234 17.3913C9.96598 16.7224 9.30857 15.9866 8.58541 15.3177L7.46781 14.1806C8.05948 14.1137 8.7169 13.9799 9.30857 13.7124C10.2947 13.3779 11.0178 12.9097 11.6095 12.3077Z"/>
</svg>
