<svg width="73" height="73" viewBox="0 0 73 73" xmlns="http://www.w3.org/2000/svg">
<path d="M69.9482 31.5247L7.86132 0.512311C7.02373 0.124638 6.10239 -0.0475972 5.18116 0.0112832C4.25993 0.0701636 3.36807 0.35829 2.58676 0.849434C1.80546 1.34058 1.15953 2.01914 0.707768 2.82335C0.256008 3.62756 0.0127671 4.53188 0.000187735 5.45399V67.452C-0.00763429 68.3985 0.229096 69.3311 0.687498 70.1595C1.1459 70.9879 1.81047 71.6842 2.61698 72.1811C3.42349 72.6779 4.34465 72.9585 5.29145 72.9957C6.23824 73.033 7.17864 72.8256 8.02175 72.3936L69.9482 41.3813C70.8655 40.9213 71.6367 40.2155 72.1757 39.3428C72.7146 38.4702 73 37.465 73 36.4396C73 35.4142 72.7146 34.4091 72.1757 33.5364C71.6367 32.6637 70.8655 31.958 69.9482 31.4979V31.5247Z"/>
</svg>
