<svg width="80" height="80" viewBox="0 0 80 80" fill="none" xmlns="http://www.w3.org/2000/svg">
<circle cx="40" cy="40" r="40" fill="white"/>
<g clip-path="url(#clip0_211_1904)">
<path d="M28.5543 47.9906C28.385 44.7462 28.2212 41.5996 28.0575 38.4398C28.035 38.3159 28.0251 38.1899 28.028 38.0639C28.3758 35.6805 27.2571 34.1165 25.4668 32.735C23.6139 31.3026 22.0426 29.4906 20.1806 28.0752C18.7877 27.015 18.957 25.7556 19.0766 24.2199L28.4604 27.6917C30.4678 22.8947 33.9233 20.0357 39.0549 19.2068V15H41.8351V19.1955C46.9557 20.0094 50.4314 22.8327 52.4664 27.6936L61.7288 24.2707C62.2606 25.8289 62.0048 26.8835 60.9119 27.8703C58.4776 30.0695 56.0378 32.2632 53.6238 34.4831C53.3533 34.7312 53.0718 35.1278 53.0479 35.4699C52.8068 39.5338 52.6155 43.5996 52.4149 47.6635C52.4213 47.7619 52.4392 47.8591 52.4683 47.953C53.1307 48.0752 53.7949 48.1541 54.4389 48.3289C58.393 49.3553 61.2946 52.6974 61.6424 56.8496C61.8135 58.8628 61.6718 60.906 61.6718 63.0075H19.0195C19.2035 60.3966 19.0858 57.7613 19.6028 55.2613C20.4161 51.3289 23.8642 48.5489 27.8827 48.0639C28.0593 48.0338 28.2396 48.0207 28.5543 47.9906ZM40.4717 42.5771L54.0378 30.3158C53.723 30.2961 53.4081 30.3515 53.1178 30.4774C49.149 31.9492 45.1857 33.438 41.2059 34.8741C40.7272 35.0311 40.2125 35.0311 39.7339 34.8741C37.2371 33.985 34.7733 33.0451 32.3004 32.1297C30.5279 31.4718 28.7542 30.8164 26.9792 30.1635L26.8983 30.3101L40.4717 42.5771ZM39.0844 50.453C39.0844 48.8477 39.1285 47.3459 39.0586 45.8477C39.0199 45.3732 38.8163 44.9285 38.4845 44.594C36.1533 42.4229 33.7779 40.2989 31.4154 38.1635C31.2645 38.0263 31.0971 37.9098 30.7843 37.6635C31.0161 42.0357 31.2388 46.2293 31.4632 50.4455L39.0844 50.453ZM49.4802 50.453C49.7028 46.1955 49.9218 42.015 50.1518 37.6034C47.355 40.1278 44.7588 42.468 42.1829 44.8177C42.0203 44.9542 41.9123 45.1467 41.8793 45.359C41.8554 47.0395 41.8646 48.718 41.8646 50.4474L49.4802 50.453ZM40.3926 59.0169L46.1848 53.3778H34.6114L40.3926 59.0169ZM36.9371 60.2538L37.1543 59.906C35.4983 58.2857 33.8166 56.6767 32.1624 55.0451C31.2424 54.1316 30.5065 52.8853 28.8854 53.3534C28.8045 52.4549 28.7346 51.6861 28.6444 50.6898L25.2552 51.7331C25.269 51.8401 25.2917 51.9458 25.3233 52.0489C27.8538 54.6917 30.3869 57.3308 32.9223 59.9662C33.0693 60.1198 33.2649 60.215 33.4743 60.235C34.6243 60.2594 35.7816 60.2481 36.9371 60.2481V60.2538ZM43.7892 59.9436L44.0376 60.2556C45.0459 60.2556 46.0615 60.3045 47.0588 60.2331C47.4942 60.2016 47.9074 60.0246 48.2345 59.7293C50.5786 57.3534 52.886 54.938 55.2006 52.532C55.3846 52.344 55.5281 52.1353 55.8465 51.7462L52.2788 50.7143C52.1941 51.75 52.1316 52.515 52.058 53.3966C50.6136 52.9173 49.8831 53.8421 49.114 54.6974C48.7203 55.1335 48.3124 55.5564 47.8905 55.9662C46.5277 57.2945 45.1606 58.6184 43.7892 59.938V59.9436ZM41.9492 31.6241L49.8279 28.6936C49.1332 26.7397 47.8704 25.0495 46.2087 23.8496C45.1783 24.9229 44.24 25.9492 43.2501 26.9211C41.951 28.1861 41.6934 29.735 41.9437 31.6184L41.9492 31.6241ZM31.1118 28.6861L39.0053 31.6147C39.1709 30.0959 39.215 28.6842 38.238 27.6034C37.1064 26.3477 35.8092 25.2481 34.5102 24.0113C32.9535 25.1957 31.7718 26.8213 31.1118 28.6861ZM23.0785 54.0808C21.8145 55.9286 21.8789 58.0282 21.9856 60.1635H29.3031L23.0785 54.0808ZM51.8225 60.1748H58.9689C59.0333 57.9812 59.1345 55.8665 57.9275 54.1955L51.8225 60.1748ZM37.399 22.5019L40.4441 25.5094L43.5426 22.4699C41.5422 21.8215 39.3928 21.8327 37.399 22.5019Z" fill="#8DA4EA"/>
</g>
<defs>
<clipPath id="clip0_211_1904">
<rect width="43" height="48" fill="white" transform="translate(19 15)"/>
</clipPath>
</defs>
</svg>
