<svg width="391" height="274" viewBox="0 0 391 274" fill="none" xmlns="http://www.w3.org/2000/svg">
<path d="M18 272H10C5.58172 272 2 268.418 2 264V10C2 5.58173 5.58172 2 10 2L18 2" stroke="white" stroke-width="3"/>
<line opacity="0.8" x1="10" y1="40" x2="10" y2="238" stroke="white" stroke-width="2"/>
<circle cx="35" cy="2" r="2" fill="white"/>
<circle cx="43" cy="2" r="2" fill="white"/>
<circle cx="51" cy="2" r="2" fill="white"/>
<circle cx="35" cy="272" r="2" fill="white"/>
<circle cx="43" cy="272" r="2" fill="white"/>
<circle cx="51" cy="272" r="2" fill="white"/>
<path d="M373 2L381 2C385.418 2 389 5.58173 389 10L389 264C389 268.418 385.418 272 381 272L373 272" stroke="white" stroke-width="3"/>
<line opacity="0.8" x1="381" y1="234" x2="381" y2="36" stroke="white" stroke-width="2"/>
<circle cx="339" cy="2" r="2" fill="white"/>
<circle cx="347" cy="2" r="2" fill="white"/>
<circle cx="355" cy="2" r="2" fill="white"/>
<circle cx="339" cy="272" r="2" fill="white"/>
<circle cx="347" cy="272" r="2" fill="white"/>
<circle cx="355" cy="272" r="2" fill="white"/>
<path d="M84.5 1H306" stroke="url(#paint0_linear_241_6)" stroke-width="2"/>
<path d="M84.5 272H306" stroke="url(#paint1_linear_241_6)" stroke-width="2"/>
<defs>
<linearGradient id="paint0_linear_241_6" x1="90.26" y1="1.00005" x2="338.989" y2="1.00029" gradientUnits="userSpaceOnUse">
<stop stop-color="white"/>
<stop offset="1" stop-color="#8DA4EA" stop-opacity="0"/>
</linearGradient>
<linearGradient id="paint1_linear_241_6" x1="90.26" y1="272" x2="338.989" y2="272" gradientUnits="userSpaceOnUse">
<stop stop-color="white"/>
<stop offset="1" stop-color="#8DA4EA" stop-opacity="0"/>
</linearGradient>
</defs>
</svg>
