<svg width="204" height="58" viewBox="0 0 204 58" fill="none" xmlns="http://www.w3.org/2000/svg">
<circle cx="154" cy="2" r="2" fill="#8DA4EA"/>
<circle cx="162" cy="2" r="2" fill="#8DA4EA"/>
<circle cx="170" cy="2" r="2" fill="#8DA4EA"/>
<circle cx="154" cy="56" r="2" fill="#8DA4EA"/>
<circle cx="162" cy="56" r="2" fill="#8DA4EA"/>
<circle cx="170" cy="56" r="2" fill="#8DA4EA"/>
<circle cx="33" cy="2" r="2" fill="#8DA4EA"/>
<circle cx="41" cy="2" r="2" fill="#8DA4EA"/>
<circle cx="49" cy="2" r="2" fill="#8DA4EA"/>
<circle cx="33" cy="56" r="2" fill="#8DA4EA"/>
<circle cx="41" cy="56" r="2" fill="#8DA4EA"/>
<circle cx="49" cy="56" r="2" fill="#8DA4EA"/>
<path d="M17 57H9C4.58172 57 1 53.4183 1 49V9.99998C1 5.58171 4.58171 1.99999 8.99998 1.99998L17 1.99996" stroke="white" stroke-width="2"/>
<path d="M63 2H140" stroke="url(#paint0_linear_202_1902)" stroke-width="2"/>
<path d="M63 57H140" stroke="url(#paint1_linear_202_1902)" stroke-width="2"/>
<path d="M187 2L195 2C199.418 2 203 5.58172 203 10L203 49C203 53.4183 199.418 57 195 57L187 57" stroke="white" stroke-width="2"/>
<defs>
<linearGradient id="paint0_linear_202_1902" x1="65.0024" y1="2" x2="132.822" y2="1.99734" gradientUnits="userSpaceOnUse">
<stop stop-color="white"/>
<stop offset="1" stop-color="#8DA4EA" stop-opacity="0"/>
</linearGradient>
<linearGradient id="paint1_linear_202_1902" x1="65.0024" y1="57" x2="132.822" y2="56.9973" gradientUnits="userSpaceOnUse">
<stop stop-color="white"/>
<stop offset="1" stop-color="#8DA4EA" stop-opacity="0"/>
</linearGradient>
</defs>
</svg>
