<svg width="253" height="90" viewBox="0 0 253 90" fill="none" xmlns="http://www.w3.org/2000/svg">
<path d="M8 19.7977C8 17.0849 10.1632 14.867 12.8751 14.7993L126.5 11.9605L239.875 9.12804C242.685 9.05785 245 11.3162 245 14.1265V78.8521C245 81.6706 242.672 83.9321 239.854 83.85L12.8543 77.2336C10.1508 77.1548 8 74.9404 8 72.2357V19.7977Z" fill="white"/>
<path d="M49 10C113.437 7.26633 149.563 5.73367 214 3" stroke="url(#paint0_linear_205_1905)" stroke-width="2"/>
<path d="M49 82C113.437 84.7337 149.563 86.2663 214 89" stroke="url(#paint1_linear_205_1905)" stroke-width="2"/>
<circle cx="213" cy="2" r="2" fill="#8DA4EA"/>
<circle cx="221" cy="2" r="2" fill="#8DA4EA"/>
<circle cx="229" cy="2" r="2" fill="#8DA4EA"/>
<circle cx="213" cy="87" r="2" fill="#8DA4EA"/>
<circle cx="221" cy="87" r="2" fill="#8DA4EA"/>
<circle cx="229" cy="87" r="2" fill="#8DA4EA"/>
<circle cx="26.0046" cy="10.2445" r="2" transform="rotate(-1.75256 26.0046 10.2445)" fill="#8DA4EA"/>
<circle cx="34.0007" cy="9.99991" r="2" transform="rotate(-1.75256 34.0007 9.99991)" fill="#8DA4EA"/>
<circle cx="41.9968" cy="9.75528" r="2" transform="rotate(-1.75256 41.9968 9.75528)" fill="#8DA4EA"/>
<circle cx="24.0022" cy="80.8042" r="2" transform="rotate(1.40236 24.0022 80.8042)" fill="#8DA4EA"/>
<circle cx="32.0003" cy="81" r="2" transform="rotate(1.40236 32.0003 81)" fill="#8DA4EA"/>
<circle cx="39.9973" cy="81.1958" r="2" transform="rotate(1.40236 39.9973 81.1958)" fill="#8DA4EA"/>
<path d="M17 80.5L8.25327 79.68C4.14232 79.2946 1 75.8439 1 71.7149V19.2851C1 15.1561 4.14231 11.7054 8.25327 11.32L17 10.5" stroke="white" stroke-width="2"/>
<path d="M236 88H244C248.418 88 252 84.4183 252 80V11C252 6.58172 248.418 3 244 3H236" stroke="white" stroke-width="2"/>
<defs>
<linearGradient id="paint0_linear_205_1905" x1="58.5863" y1="5.03327" x2="209.183" y2="1.98207" gradientUnits="userSpaceOnUse">
<stop stop-color="white"/>
<stop offset="1" stop-color="white" stop-opacity="0"/>
</linearGradient>
<linearGradient id="paint1_linear_205_1905" x1="58.5863" y1="86.9667" x2="209.183" y2="90.0179" gradientUnits="userSpaceOnUse">
<stop stop-color="white"/>
<stop offset="1" stop-color="white" stop-opacity="0"/>
</linearGradient>
</defs>
</svg>
