<svg width="80" height="80" viewBox="0 0 80 80" fill="none" xmlns="http://www.w3.org/2000/svg">
<circle cx="40" cy="40" r="40" fill="white"/>
<g clip-path="url(#clip0_211_1905)">
<path d="M37.125 48.6374L34.5249 47.0717L32.0434 48.5781C32.3471 48.9839 32.6634 49.3699 32.9419 49.7829C33.7738 51.0201 33.2294 52.3218 31.7865 52.672C31.6342 52.7167 31.4922 52.7911 31.3689 52.891C31.2455 52.9908 31.1432 53.1141 31.0677 53.2537C30.6473 54.2053 30.3813 55.2288 29.9213 56.1571C29.3373 57.335 29.4775 58.3441 30.1567 59.4411C30.7969 60.4339 31.3032 61.5067 31.6625 62.6318C31.7414 62.869 31.7695 63.1201 31.7451 63.3688C31.7206 63.6175 31.6442 63.8584 31.5207 64.0757C31.3972 64.293 31.2294 64.482 31.0282 64.6305C30.827 64.7789 30.5968 64.8834 30.3526 64.9373C29.4272 65.1725 28.5036 64.5782 28.1838 63.6445C27.9358 62.9263 27.6806 62.1776 27.2548 61.5617C25.6502 59.2526 25.4453 56.8861 26.7876 54.3993C26.9673 54.0599 27.1164 53.6972 27.2656 53.3399C27.3315 53.1525 27.3879 52.962 27.4345 52.7689C26.3204 52.6899 25.1704 52.4098 25.1722 51.1888C25.1722 50.2911 25.7921 49.4112 26.1389 48.5117C19.6091 45.6119 15.2552 35.099 17.6792 27.2866C19.6109 21.0596 25.1956 18.4866 30.7066 19.1456C31.8224 19.2785 32.9023 19.6968 34.0092 19.9374C34.3702 20.0273 34.7488 20.0186 35.1053 19.9123C38.3397 18.7272 41.5345 18.7506 44.7653 19.9123C45.2038 20.0703 45.8183 19.9859 46.2765 19.8135C51.0957 17.9839 56.8259 19.2856 60.0136 23.0114C61.9902 25.3133 62.7754 28.073 62.9641 31.0303C63.0961 33.3049 62.8136 35.5845 62.1303 37.7582C61.7709 38.9432 60.8725 39.5268 59.8645 39.2359C58.8187 38.9343 58.3389 38.0185 58.6821 36.8083C59.4817 33.9911 59.7117 31.1649 58.8618 28.3208C57.604 24.0761 53.1801 21.6252 49.0563 22.8677C53.3688 30.409 53.1262 35.3809 47.9781 44.2832C49.6295 45.7035 51.3491 45.8866 53.1603 44.7464C53.8377 44.3191 54.4181 43.7499 55.0452 43.2382C55.9006 42.5343 56.9266 42.563 57.6184 43.319C58.3102 44.0749 58.3173 45.093 57.5141 45.8058C56.3821 46.8077 55.1495 47.6983 53.8683 48.7092C54.0623 48.9642 54.3804 49.3412 54.6571 49.747C55.5556 51.0506 54.9428 52.4403 53.3706 52.6504C52.8638 52.715 52.6788 52.9 52.5494 53.3776C52.3391 54.1515 52.1307 54.9649 51.7156 55.6328C50.7507 57.1859 50.9861 58.5057 52.0337 59.9331C52.5979 60.6998 52.9321 61.6712 53.225 62.5977C53.3395 62.944 53.3451 63.3171 53.2411 63.6667C53.137 64.0163 52.9282 64.3256 52.6428 64.5531C51.6186 65.4275 50.111 64.8996 49.7139 63.5906C49.5088 62.8545 49.1925 62.154 48.7759 61.5132C47.1983 59.2203 47.0042 56.8807 48.3249 54.4208C48.4938 54.1066 48.6412 53.778 48.7813 53.4494C48.8622 53.2609 48.9071 53.0562 48.997 52.7653C47.9296 52.6594 46.8569 52.3003 46.8946 51.1368C46.9234 50.2659 47.5217 49.4148 47.8775 48.526C47.2486 48.1292 46.4849 47.6283 45.6943 47.1632C45.5955 47.1202 45.4885 47.0993 45.3807 47.1021C45.273 47.1049 45.1672 47.1313 45.0708 47.1794C44.3233 47.6121 43.6027 48.0897 42.9613 48.4937C43.3458 49.3197 43.8902 50.1097 44.0627 50.9626C44.2352 51.8155 43.556 52.3829 42.212 52.7779C42.5048 53.2986 42.7977 53.7996 43.0709 54.3113C44.2658 56.5503 44.0627 58.678 42.5498 60.6944C41.7717 61.7323 40.7709 62.5941 40.4726 63.9785C40.3073 64.7416 39.328 65.1151 38.5607 64.9571C37.7467 64.7901 37.0423 64.0754 37.1466 63.2405C37.2482 62.3895 37.5065 61.5646 37.9084 60.8076C38.3469 60.0067 39.0207 59.3316 39.6101 58.6188C40.3522 57.721 40.3971 56.7963 39.8059 55.8034C39.2669 54.9056 38.7907 53.9755 38.2373 53.0903C38.0658 52.8731 37.8201 52.7267 37.5473 52.6791C35.9301 52.3577 35.3748 51.0183 36.3308 49.6698C36.5985 49.3161 36.8752 48.9695 37.125 48.6374ZM31.2187 32.0537C31.4127 34.8853 32.1009 37.5194 33.436 39.9829C34.3345 41.6563 35.4503 43.1681 36.9848 44.3281C39.0063 45.8561 40.7906 45.8686 42.8139 44.3658C43.1295 44.1385 43.4264 43.8864 43.7016 43.6116C47.1156 40.0834 48.6933 35.8262 48.3734 30.9656C48.0536 26.0674 45.5254 23.2448 41.0871 22.7061C37.2256 22.2321 33.4558 23.6686 32.0201 28.0299C31.596 29.3191 31.4774 30.7089 31.2187 32.0537ZM31.8745 44.4053C27.4776 37.4206 25.8191 30.3013 30.7084 22.8229C26.7552 21.6773 22.3763 24.1282 21.1454 28.2598C20.0924 31.797 20.556 35.2444 21.9881 38.5841C23.0537 41.0674 24.5038 43.2849 26.8505 44.7572C28.606 45.8579 30.2699 45.7142 31.8745 44.4053Z" fill="#8DA4EA"/>
<path d="M34.8252 31.6174C35.0911 30.6155 35.2475 29.5669 35.6482 28.6206C36.3849 26.8771 38.2914 25.9273 40.1511 26.2308C40.5795 26.2917 40.9714 26.5051 41.2549 26.8317C41.5384 27.1582 41.6945 27.576 41.6945 28.0083C41.6945 28.4407 41.5384 28.8585 41.2549 29.185C40.9714 29.5116 40.5795 29.7249 40.1511 29.7859C38.7424 30.0265 38.6543 30.1253 38.5699 31.5815C38.5591 31.761 38.5699 31.9406 38.5483 32.1201C38.4657 33.1975 37.6912 33.9552 36.7029 33.9157C35.7146 33.8762 34.9869 33.0987 34.9582 32.0106C34.9582 31.8903 34.9582 31.77 34.9582 31.6515L34.8252 31.6174Z" fill="#8DA4EA"/>
</g>
<defs>
<clipPath id="clip0_211_1905">
<rect width="46" height="46" fill="white" transform="translate(17 19)"/>
</clipPath>
</defs>
</svg>
