<svg width="80" height="80" viewBox="0 0 80 80" fill="none" xmlns="http://www.w3.org/2000/svg">
<circle cx="40" cy="40" r="40" fill="white"/>
<g clip-path="url(#clip0_211_1902)">
<path d="M18 60.1028C18.3225 59.6354 18.5815 59.1043 18.9778 58.7108C25.7082 52.0465 32.4477 45.3914 39.1963 38.7455C39.807 38.1423 40.4143 37.5426 41.0301 36.9377C41.9376 36.0578 42.9326 35.9822 43.6737 36.728C44.4148 37.4738 44.3204 38.5049 43.4369 39.3762C36.9651 45.7701 30.4875 52.1634 24.0041 58.5562C23.0057 59.5391 22.0159 60.5324 21.0021 61.4999C20.4548 62.0155 19.8012 62.1564 19.103 61.823C18.4477 61.5102 18.0978 60.9947 18.1904 60.2351L18 60.1028Z" fill="#8DA4EA"/>
<path d="M44.0031 24.9923C44.0031 26.7348 44.0031 28.4774 44.0031 30.2199C44.0031 30.9709 43.672 31.5638 42.9738 31.8507C42.3219 32.1154 41.622 32.0741 41.1606 31.5191C40.8358 31.1312 40.6434 30.6495 40.6116 30.1443C40.5653 26.7073 40.5721 23.2875 40.5945 19.8592C40.5945 18.7284 41.3149 18.0015 42.2962 17.9981C43.2774 17.9946 43.9876 18.7198 44.0117 19.8471C44.0425 21.5656 44.0117 23.2841 44.0117 24.9906L44.0031 24.9923Z" fill="#8DA4EA"/>
<path d="M47.5065 34.5694C46.9764 34.1089 46.3811 33.7824 46.0792 33.2788C45.6829 32.6155 45.8957 31.8938 46.4618 31.3249C47.817 29.9696 49.1711 28.612 50.524 27.2521C51.5944 26.1798 52.6615 25.1006 53.7405 24.0351C54.6291 23.157 55.6464 23.0951 56.3806 23.853C57.0771 24.573 57.0102 25.6041 56.1782 26.4427C53.8023 28.8383 51.4212 31.2321 49.0144 33.6019C48.649 33.9611 48.1395 34.1725 47.5065 34.5694Z" fill="#8DA4EA"/>
<path d="M47.5845 41.4744C48.2003 41.8421 48.6961 42.0277 49.0426 42.3645C51.4603 44.7211 53.8619 47.0955 56.2476 49.4876C57.0315 50.273 57.0676 51.3127 56.3865 52.0121C55.7055 52.7115 54.6711 52.7287 53.8699 51.9468C51.4385 49.565 49.018 47.1717 46.6084 44.767C46.0337 44.1947 45.7163 43.4764 46.1726 42.7564C46.4763 42.258 47.0647 41.928 47.5845 41.4744Z" fill="#8DA4EA"/>
<path d="M29.3407 23.0952C29.9342 23.4492 30.406 23.6211 30.7302 23.9424C33.1719 26.3483 35.5947 28.7708 37.9986 31.2099C38.7843 32.0055 38.798 33.0229 38.093 33.7275C37.3879 34.432 36.3569 34.3977 35.5764 33.6243C33.1456 31.2185 30.7336 28.7765 28.3114 26.3535C27.7213 25.764 27.488 25.0302 27.9151 24.3377C28.2205 23.8428 28.826 23.5266 29.3407 23.0952Z" fill="#8DA4EA"/>
<path d="M55.0676 39.6528C53.4414 39.6528 51.8082 39.6614 50.1888 39.6528C49 39.6528 48.2383 38.9895 48.2143 37.9756C48.192 36.929 48.9726 36.2159 50.1923 36.2159C53.4734 36.2067 56.7545 36.2067 60.0356 36.2159C61.2364 36.2159 61.9775 36.8672 61.9998 37.8931C62.0238 38.9568 61.2673 39.6442 60.0322 39.6511C58.3768 39.6528 56.7213 39.6528 55.0676 39.6528Z" fill="#8DA4EA"/>
<path d="M43.9995 51.1666C43.9995 52.8232 44.0441 54.4816 43.9858 56.1365C43.936 57.5387 42.5414 58.3705 41.4641 57.6058C41.0386 57.3067 40.6338 56.6503 40.6218 56.1485C40.5463 52.8645 40.5617 49.5787 40.5943 46.2947C40.6046 45.2224 41.3491 44.5539 42.3287 44.5762C43.2739 44.5951 43.9601 45.2464 43.9875 46.2861C44.0321 47.9015 43.9995 49.5323 43.9995 51.1666Z" fill="#8DA4EA"/>
<path d="M28.9946 39.6528C27.4507 39.6528 25.9068 39.6528 24.3748 39.6528C23.174 39.6528 22.4329 38.9998 22.4106 37.9739C22.3883 36.9033 23.1466 36.2159 24.38 36.2159C27.4907 36.2067 30.6003 36.2067 33.7087 36.2159C34.8975 36.2159 35.6575 36.8809 35.6815 37.8931C35.7072 38.9362 34.9215 39.6425 33.7018 39.6511C32.1339 39.6528 30.5642 39.6528 28.9946 39.6528Z" fill="#8DA4EA"/>
<path d="M50.3365 53.0294C50.3435 53.4769 50.1749 53.9093 49.8669 54.2336C49.5589 54.5579 49.1362 54.7481 48.6897 54.7634C47.6415 54.7909 46.5145 53.4762 46.499 52.208C46.4991 51.7613 46.6716 51.3319 46.9805 51.0097C47.2893 50.6875 47.7106 50.4974 48.1562 50.4792C49.2215 50.4448 50.3228 51.744 50.3365 53.0294Z" fill="#8DA4EA"/>
<path d="M36.774 25.4479C35.6847 25.4479 35.1804 25.0131 34.8236 24.3275C34.4187 23.5507 34.0362 22.7808 34.6211 21.9302L34.6709 21.8597C34.91 21.5553 35.2435 21.3393 35.6188 21.246C35.994 21.1526 36.3897 21.1872 36.7432 21.3442C37.5391 21.7051 38.2871 23.195 38.1155 24.0937C37.9714 24.8739 37.3007 25.441 36.774 25.4479Z" fill="#8DA4EA"/>
<path d="M50.2641 22.8702C50.283 24.0869 49.1473 25.4479 48.1146 25.4479C47.8935 25.4495 47.6741 25.4072 47.4693 25.3236C47.2645 25.24 47.0782 25.1166 46.9211 24.9605C46.7641 24.8045 46.6394 24.6189 46.5542 24.4144C46.4691 24.2099 46.4251 23.9905 46.4249 23.7689C46.4129 22.5076 47.5125 21.1809 48.5641 21.1912C49.0106 21.1921 49.4389 21.3685 49.7568 21.6825C50.0748 21.9965 50.2569 22.423 50.2641 22.8702Z" fill="#8DA4EA"/>
<path d="M56.5049 42.0586C57.7504 42.0397 59.0901 43.1533 59.0781 44.205C59.0782 44.652 58.9018 45.0809 58.5876 45.3983C58.2733 45.7156 57.8466 45.8958 57.4004 45.8994C56.1498 45.9217 54.8169 44.8168 54.8272 43.7616C54.8272 43.3138 55.0032 42.884 55.3172 42.5652C55.6312 42.2465 56.0579 42.0645 56.5049 42.0586Z" fill="#8DA4EA"/>
<path d="M56.7383 33.8099C56.2923 33.8152 55.8618 33.6463 55.538 33.3389C55.2142 33.0316 55.0227 32.61 55.004 32.1636C54.9611 31.0947 56.2271 29.9914 57.524 29.9674C57.7449 29.9605 57.9649 29.9973 58.1715 30.0758C58.3781 30.1543 58.5672 30.2728 58.728 30.4246C58.8888 30.5765 59.0181 30.7586 59.1086 30.9605C59.199 31.1625 59.2487 31.3804 59.2549 31.6016C59.2927 32.6568 58.0163 33.7772 56.7383 33.8099Z" fill="#8DA4EA"/>
<path d="M29.7508 32.2426C29.7536 32.4717 29.7106 32.6991 29.6243 32.9114C29.5381 33.1236 29.4103 33.3164 29.2485 33.4785C29.0868 33.6405 28.8943 33.7685 28.6824 33.8549C28.4705 33.9414 28.2435 33.9844 28.0148 33.9817C26.7934 33.9611 25.5068 32.8767 25.4965 31.8594C25.4917 31.638 25.5306 31.4178 25.6109 31.2116C25.6913 31.0053 25.8115 30.8169 25.9646 30.6572C26.1178 30.4976 26.3009 30.3698 26.5034 30.2812C26.706 30.1926 26.924 30.1449 27.145 30.1409C28.3888 30.0979 29.7388 31.1943 29.7508 32.2426Z" fill="#8DA4EA"/>
</g>
<defs>
<clipPath id="clip0_211_1902">
<rect width="44" height="44" fill="white" transform="translate(18 18)"/>
</clipPath>
</defs>
</svg>
