<svg width="23" height="23" viewBox="0 0 23 23" fill="none" xmlns="http://www.w3.org/2000/svg">
<path d="M9.1797 3.2218C9.97297 1.79351 12.027 1.79351 12.8203 3.2218C13.2904 4.06823 14.2819 4.47894 15.2129 4.21283C16.7838 3.76381 18.2362 5.21625 17.7872 6.78713C17.5211 7.71807 17.9318 8.70959 18.7782 9.1797C20.2065 9.97297 20.2065 12.027 18.7782 12.8203C17.9318 13.2904 17.5211 14.2819 17.7872 15.2129C18.2362 16.7838 16.7838 18.2362 15.2129 17.7872C14.2819 17.5211 13.2904 17.9318 12.8203 18.7782C12.027 20.2065 9.97297 20.2065 9.1797 18.7782C8.70959 17.9318 7.71807 17.5211 6.78713 17.7872C5.21625 18.2362 3.76381 16.7838 4.21283 15.2129C4.47894 14.2819 4.06823 13.2904 3.2218 12.8203C1.79351 12.027 1.79351 9.97297 3.2218 9.1797C4.06823 8.70959 4.47894 7.71807 4.21283 6.78713C3.76381 5.21625 5.21625 3.76381 6.78713 4.21283C7.71807 4.47894 8.70959 4.06823 9.1797 3.2218Z" fill="#8DA4EA"/>
<path d="M14.686 7.84131L10.0531 13.6324L7.94727 11.0001" stroke="white" stroke-width="1.57938" stroke-linecap="round" stroke-linejoin="round"/>
</svg>
