<svg width="40" height="40" viewBox="0 0 40 40" fill="none" xmlns="http://www.w3.org/2000/svg">
<circle cx="20" cy="20" r="20" fill="white"/>
<path d="M31.0151 15.5852C29.6362 15.2777 28.2198 15.7832 27.3191 16.8042C26.0276 15.1102 24.1353 13.8981 21.9629 13.4885C22.0664 13.2598 22.1256 13.0063 22.1256 12.7383C22.1256 11.7389 21.3227 10.9287 20.3325 10.9287C19.3423 10.9287 18.5394 11.739 18.5394 12.7383C18.5394 13.0063 18.5986 13.2597 18.7021 13.4885C16.7921 13.8486 15.0981 14.8287 13.8391 16.2117C13.0918 15.1989 12.077 14.0343 10.8201 13.0753C10.3328 12.7036 9.64324 12.7606 9.22369 13.2073L7.32369 15.2303C6.9816 15.5944 6.90269 16.1344 7.12515 16.582C7.13905 16.61 8.51678 19.4134 8.51678 22.1175C8.51678 24.4284 9.55969 26.2225 11.4534 27.1694C12.2901 27.5878 13.1121 27.7544 13.6515 27.8208C14.387 28.6798 15.2948 29.4043 16.3447 29.9405C16.513 30.0265 16.6993 30.0713 16.8883 30.0713H23.7768C23.9658 30.0713 24.1521 30.0265 24.3204 29.9405C25.4404 29.3685 26.3993 28.5828 27.159 27.6474C28.5051 27.0277 30.1093 25.6118 31.2198 24.4243C32.4659 23.0919 33.9595 21.1604 33.9987 19.5263C34.0445 17.6078 32.8177 15.9872 31.0151 15.5852ZM20.3325 15.727C22.2571 15.727 23.9844 16.5834 25.157 17.9337H15.5081C16.6807 16.5833 18.408 15.727 20.3325 15.727ZM10.9075 22.1175C10.9075 19.7614 10.0937 17.4512 9.61069 16.2875L10.1894 15.6713C11.1417 16.5623 11.8937 17.5623 12.4071 18.338C11.8587 19.4833 11.5511 20.7652 11.5511 22.1175C11.5511 22.9871 11.6786 23.8343 11.9184 24.6391C11.2397 24.072 10.9075 23.2412 10.9075 22.1175ZM23.4764 27.6806H17.1887C15.1789 26.5449 13.942 24.4382 13.942 22.1176C13.942 21.4951 14.0331 20.8938 14.1999 20.3244H26.4654C26.6321 20.8937 26.7233 21.4951 26.7233 22.1176C26.7231 24.4382 25.4862 26.5449 23.4764 27.6806ZM29.4736 22.7915C29.3299 22.9453 29.1859 23.0928 29.0423 23.2363C29.089 22.8686 29.114 22.4953 29.114 22.1176C29.114 21.1765 28.9645 20.2698 28.6892 19.4192C28.9628 18.7118 29.4921 17.4248 30.4949 17.9186C31.1144 18.2237 31.627 18.7066 31.6087 19.4692C31.5963 19.9828 30.9229 21.2416 29.4736 22.7915Z" fill="#8DA4EA"/>
</svg>
