<svg width="80" height="80" viewBox="0 0 80 80" fill="none" xmlns="http://www.w3.org/2000/svg">
<circle cx="40" cy="40" r="40" fill="white"/>
<g clip-path="url(#clip0_211_1903)">
<path d="M40.692 34.4034C41.5768 35.0523 42.3841 35.673 43.2209 36.2488C44.4466 37.0945 45.8106 37.0739 46.9073 36.2319C47.958 35.4273 48.3561 34.1071 47.9487 32.7062C47.7475 31.9535 47.5069 31.2124 47.2281 30.4858C46.9884 29.9006 47.1488 29.58 47.6409 29.263C48.2621 28.8636 48.8464 28.4041 49.4344 27.9503C50.6398 27.022 51.0785 25.7561 50.6749 24.4189C50.2509 23.0105 49.2113 22.2191 47.6428 22.1573C46.8152 22.1254 45.9839 22.1966 45.16 22.1197C45.0009 22.0882 44.8506 22.0214 44.7197 21.9242C44.5888 21.827 44.4805 21.7017 44.4024 21.5571C44.0817 20.7864 43.8918 19.9593 43.6098 19.1679C43.1324 17.8102 42.0099 17 40.6865 17C39.3631 17 38.2424 17.8158 37.7632 19.1679C37.4812 19.9575 37.2913 20.7864 36.9706 21.5571C36.8926 21.7028 36.7836 21.8289 36.6516 21.9263C36.5196 22.0236 36.3678 22.0897 36.2075 22.1197C35.2859 22.1985 34.3643 22.1198 33.4427 22.1854C32.0548 22.2829 31.0852 23.1062 30.6908 24.4246C30.3055 25.7073 30.7 26.9732 31.7967 27.8396C32.4824 28.3797 33.2197 28.8392 33.8666 29.4055C33.9815 29.5241 34.0686 29.6674 34.1216 29.8248C34.1746 29.9823 34.192 30.1498 34.1726 30.3151C33.9993 31.1028 33.6915 31.8585 33.4593 32.6331C33.0188 34.1015 33.3966 35.4217 34.4767 36.245C35.6029 37.1039 36.9614 37.0983 38.2406 36.2C39.0479 35.6261 39.8331 35.0316 40.692 34.4034ZM34.7938 61.6693L35.0463 61.6281C34.5228 58.0649 34.1247 54.4623 33.4408 50.9198C32.8417 47.7226 31.6655 44.666 29.9719 41.9049C29.3545 40.9015 28.2227 40.6409 27.3472 41.2166C26.4717 41.7923 26.2413 42.8425 26.8366 43.8421C28.7296 47.049 29.8116 50.5559 30.3387 54.2148C30.7424 57.0166 30.8917 59.8596 31.0871 62.6895C31.1921 64.1448 31.8004 64.9963 32.945 65.0094C34.1265 65.0094 34.7993 64.1373 34.7882 62.6145C34.7864 62.2938 34.7882 61.9807 34.7882 61.6693H34.7938ZM46.2217 61.7031C46.2217 62.0932 46.2217 62.5301 46.2217 62.9671C46.2456 64.1673 46.994 64.9944 48.0538 65C49.1137 65.0056 49.8583 64.1955 49.9081 62.984C49.9634 61.6431 49.98 60.2985 50.0924 58.9632C50.5016 53.6297 51.5025 48.4611 54.2249 43.7727C54.7778 42.8238 54.5253 41.7811 53.6867 41.2204C52.848 40.6596 51.7292 40.8903 51.1062 41.8167C50.7326 42.3874 50.3988 42.984 50.1071 43.6021C47.3442 49.2957 46.4631 55.4038 46.2198 61.7031H46.2217ZM18.8906 36.6051C18.9053 37.554 19.6278 37.946 20.3375 37.4959C21.0139 37.0683 21.6498 36.5732 22.2876 36.0856C22.7742 35.7105 23.2276 35.7105 23.7105 36.0856C24.2967 36.5376 24.8681 37.0233 25.5132 37.3759C25.8579 37.5634 26.444 37.6197 26.7408 37.4359C26.9767 37.2896 27.0633 36.6632 26.9951 36.2919C26.8661 35.5999 26.5841 34.9323 26.3537 34.2534C26.1436 33.6139 26.2763 33.1075 26.8551 32.7137C27.4579 32.341 28.0223 31.9075 28.5398 31.4197C28.8107 31.1384 29.0595 30.5589 28.9508 30.2476C28.842 29.9363 28.2964 29.6568 27.9057 29.5912C27.2664 29.5037 26.6191 29.4948 25.9777 29.565C25.1741 29.6268 24.7022 29.3249 24.5031 28.511C24.3592 27.8421 24.1486 27.1898 23.8746 26.5644C23.7271 26.2512 23.3069 25.8555 23.0378 25.8742C22.706 25.8986 22.2747 26.2493 22.1162 26.5812C21.83 27.2365 21.6054 27.9178 21.4452 28.616C21.2609 29.2874 20.8831 29.6006 20.1826 29.5668C19.4462 29.506 18.7058 29.5141 17.9708 29.5912C17.6206 29.6418 17.1266 29.9494 17.0252 30.2532C16.9238 30.557 17.1321 31.1084 17.3846 31.3784C17.8755 31.8498 18.4171 32.2631 18.9993 32.6105C19.7163 33.0644 19.8767 33.6401 19.5799 34.4409C19.2942 35.1911 19.0878 35.9768 18.8906 36.6051ZM53.9115 36.5807C53.9115 37.4134 54.4461 37.8409 55.082 37.629C55.308 37.5351 55.5196 37.4088 55.7105 37.254C58.4974 35.2886 57.5371 35.3055 60.3443 37.2802C60.3683 37.2971 60.3904 37.3327 60.4162 37.3365C60.8641 37.3984 61.4632 37.6553 61.7212 37.4565C61.9793 37.2577 62.0032 36.592 61.9627 36.1437C61.9166 35.6599 61.677 35.1948 61.5258 34.7203C61.0927 33.3569 61.1166 33.2838 62.2189 32.4568C62.6391 32.1417 63.1239 31.8848 63.4575 31.4947C63.7432 31.1609 64.0768 30.602 63.9755 30.2738C63.8741 29.9457 63.2806 29.655 62.8695 29.5875C62.182 29.4768 61.4632 29.5424 60.7572 29.5612C60.1526 29.5762 59.7803 29.3324 59.6089 28.7192C59.4445 28.0222 59.2168 27.3423 58.9287 26.6881C58.7444 26.3299 58.3113 25.8761 58.0071 25.8836C57.703 25.8911 57.2699 26.3581 57.1003 26.7219C56.7925 27.3595 56.7114 28.1134 56.3796 28.7342C56.2658 28.9296 56.1147 29.0998 55.9352 29.2347C55.7557 29.3697 55.5515 29.4667 55.3345 29.5199C54.5861 29.6437 53.7936 29.4787 53.0415 29.5912C52.6637 29.6475 52.166 29.9775 52.037 30.3114C51.9319 30.587 52.1992 31.1365 52.4609 31.4047C52.9274 31.8574 53.4446 32.2527 54.0019 32.5824C54.7631 33.0644 54.905 33.6683 54.5825 34.4953C54.2931 35.2192 54.1032 35.9768 53.9171 36.5807H53.9115ZM38.8396 54.9593C38.8396 57.5492 38.8396 60.139 38.8396 62.7289C38.8396 64.1486 39.5769 65.0188 40.7215 64.9944C41.8274 64.97 42.5242 64.1223 42.526 62.7439C42.526 57.6254 42.526 52.5069 42.526 47.3884C42.526 45.9707 41.7887 45.1005 40.6441 45.1249C39.5382 45.1492 38.8433 45.995 38.8396 47.3753C38.8414 49.9089 38.8451 52.4444 38.8451 54.9649L38.8396 54.9593ZM28.5195 20.9383C28.5194 20.5691 28.4122 20.2081 28.2113 19.9006C28.0105 19.5931 27.7248 19.3528 27.3903 19.2097C27.0557 19.0667 26.6871 19.0273 26.3307 19.0966C25.9742 19.1658 25.6458 19.3405 25.3865 19.5989C25.1273 19.8572 24.9488 20.1877 24.8733 20.5489C24.7979 20.91 24.8289 21.2858 24.9625 21.6291C25.0961 21.9724 25.3263 22.2679 25.6243 22.4786C25.9223 22.6893 26.2748 22.8059 26.6376 22.8136C26.8829 22.8189 27.1267 22.7742 27.3548 22.6823C27.5829 22.5904 27.7907 22.4531 27.966 22.2785C28.1413 22.1038 28.2805 21.8953 28.3756 21.6652C28.4706 21.435 28.5195 21.1879 28.5195 20.9383ZM52.4923 20.9683C52.4981 21.3373 52.6108 21.6964 52.8162 22.0005C53.0217 22.3047 53.3108 22.5404 53.6473 22.6781C53.9839 22.8158 54.3529 22.8495 54.7081 22.7748C55.0633 22.7002 55.389 22.5205 55.6444 22.2584C55.8997 21.9963 56.0734 21.6633 56.1436 21.3012C56.2138 20.9391 56.1774 20.564 56.0391 20.2229C55.9007 19.8817 55.6665 19.5897 55.3657 19.3833C55.065 19.177 54.7111 19.0655 54.3484 19.0629C54.1032 19.0611 53.8602 19.1092 53.6335 19.2041C53.4067 19.2991 53.201 19.4392 53.0281 19.6161C52.8553 19.793 52.7188 20.0032 52.6268 20.2344C52.5348 20.4656 52.4891 20.7132 52.4923 20.9626V20.9683ZM40.7086 42.3174C41.0717 42.3148 41.4259 42.2032 41.7268 41.9965C42.0277 41.7899 42.2619 41.4974 42.4001 41.1558C42.5383 40.8142 42.5742 40.4387 42.5034 40.0764C42.4326 39.7141 42.2582 39.3812 42.0022 39.1193C41.7461 38.8575 41.4197 38.6784 41.064 38.6046C40.7082 38.5308 40.339 38.5655 40.0026 38.7044C39.6662 38.8432 39.3776 39.0801 39.173 39.3852C38.9684 39.6904 38.8569 40.0502 38.8525 40.4196C38.8496 40.6688 38.8955 40.9162 38.9876 41.1472C39.0797 41.3782 39.2162 41.5882 39.389 41.7649C39.5618 41.9416 39.7676 42.0815 39.9941 42.1764C40.2207 42.2713 40.4636 42.3192 40.7086 42.3174Z" fill="white"/>
<path d="M40.6922 34.4034C39.8332 35.0316 39.048 35.6261 38.2407 36.1906C36.9615 37.0889 35.6031 37.0945 34.4769 36.2356C33.4041 35.4123 33.0189 34.0921 33.4594 32.6237C33.6917 31.8491 33.9995 31.0934 34.1727 30.3057C34.1907 30.142 34.1726 29.9762 34.1196 29.8205C34.0667 29.6648 33.9803 29.523 33.8668 29.4055C33.2198 28.8392 32.4825 28.3797 31.8005 27.8415C30.7075 26.9751 30.3131 25.7092 30.6946 24.4265C31.0891 23.1137 32.0586 22.2848 33.4465 22.1873C34.3681 22.1235 35.2897 22.2004 36.2113 22.1216C36.3717 22.0916 36.5234 22.0255 36.6554 21.9281C36.7874 21.8308 36.8964 21.7047 36.9744 21.559C37.2951 20.7882 37.485 19.9593 37.767 19.1698C38.2425 17.8158 39.3632 17 40.6866 17C42.0101 17 43.1326 17.8102 43.6155 19.1604C43.8975 19.9518 44.0874 20.7789 44.4081 21.5496C44.4861 21.6942 44.5944 21.8195 44.7253 21.9167C44.8563 22.0139 45.0066 22.0807 45.1656 22.1122C45.9877 22.1891 46.8245 22.1122 47.6484 22.1498C49.217 22.2116 50.2566 23.003 50.6805 24.4114C51.0842 25.7486 50.6455 27.0145 49.44 27.9428C48.8521 28.3947 48.2678 28.8542 47.6466 29.2555C47.1545 29.5725 46.9941 29.8931 47.2337 30.4783C47.5113 31.2049 47.7507 31.9461 47.9507 32.6987C48.3581 34.0996 47.9599 35.4198 46.9093 36.2244C45.8034 37.0664 44.4468 37.087 43.2229 36.2413C42.3842 35.673 41.5769 35.0523 40.6922 34.4034ZM40.8378 22.5623C40.1945 23.545 39.7724 24.7153 38.9503 25.2929C38.1283 25.8705 36.8804 25.8799 35.7045 26.1649C38.2536 27.4477 38.7199 29.4243 37.579 32.0236C39.671 29.9738 41.6986 30.0113 43.5565 31.8923C43.4975 30.7464 43.1455 29.5256 43.4662 28.5279C43.7869 27.5302 44.7804 26.795 45.5582 25.8499C42.9059 26.3018 41.2709 25.186 40.8378 22.5623Z" fill="#8DA4EA"/>
<path d="M34.7885 61.6692C34.7885 61.9805 34.7885 62.2937 34.7885 62.6069C34.7995 64.1297 34.1267 65.0055 32.9453 65.0018C31.8006 65.0018 31.1868 64.1466 31.0855 62.6932C30.8882 59.8633 30.7408 57.0202 30.3371 54.2184C29.8118 50.5596 28.7298 47.0526 26.835 43.8458C26.2415 42.8443 26.4664 41.7828 27.3456 41.2202C28.2248 40.6576 29.3491 40.9014 29.9722 41.9047C31.6638 44.6663 32.8381 47.7229 33.4355 50.9196C34.1102 54.4622 34.5175 58.0573 35.041 61.628L34.7885 61.6692Z" fill="#8DA4EA"/>
<path d="M46.2205 61.703C46.4638 55.4037 47.3449 49.2956 50.1023 43.6039C50.394 42.9858 50.7278 42.3892 51.1014 41.8185C51.7207 40.8921 52.8321 40.6595 53.6819 41.2221C54.5316 41.7848 54.773 42.8256 54.2201 43.7745C51.4976 48.4629 50.4968 53.6296 50.0876 58.965C49.9844 60.3002 49.9678 61.6449 49.9033 62.9858C49.8535 64.1973 49.1088 65.0074 48.049 65.0018C46.9892 64.9962 46.2408 64.1691 46.2169 62.9689C46.2132 62.5301 46.2205 62.0931 46.2205 61.703Z" fill="#8DA4EA"/>
<path d="M18.8907 36.605C19.0879 35.9768 19.2943 35.191 19.58 34.4409C19.8786 33.6438 19.7183 33.0681 19.0013 32.6049C18.4191 32.2575 17.8774 31.8441 17.3866 31.3728C17.1341 31.1121 16.9258 30.5626 17.0272 30.2475C17.1286 29.9325 17.6225 29.6362 17.9801 29.5855C18.7151 29.5085 19.4555 29.5003 20.192 29.5612C20.8924 29.5949 21.2721 29.2817 21.4546 28.6104C21.6147 27.9121 21.8393 27.2308 22.1255 26.5756C22.284 26.2474 22.7153 25.8929 23.0471 25.8686C23.3162 25.8498 23.7365 26.2436 23.8839 26.5587C24.1594 27.1852 24.3712 27.8387 24.5161 28.5091C24.7115 29.323 25.1834 29.6249 25.9907 29.563C26.6318 29.4911 27.2792 29.498 27.9187 29.5837C28.3095 29.6493 28.8551 29.925 28.9638 30.24C29.0725 30.5551 28.8237 31.1308 28.5528 31.4121C28.0353 31.8999 27.4709 32.3335 26.8681 32.7062C26.2893 33.1 26.1566 33.6063 26.3667 34.2458C26.5897 34.9266 26.8791 35.5942 27.0082 36.2919C27.0764 36.6669 26.9897 37.2895 26.7538 37.4358C26.457 37.6234 25.8709 37.5577 25.5262 37.3758C24.8811 37.0326 24.3097 36.5375 23.7236 36.0856C23.2406 35.7105 22.7872 35.7105 22.3006 36.0856C21.6628 36.5732 21.0269 37.0683 20.3505 37.4958C19.6261 37.9459 18.9054 37.554 18.8907 36.605Z" fill="#8DA4EA"/>
<path d="M53.9177 36.5808C54.102 35.9769 54.2864 35.2193 54.5757 34.4973C54.8983 33.6702 54.7601 33.0664 53.9951 32.5844C53.4379 32.2547 52.9207 31.8594 52.4542 31.4067C52.1925 31.1385 51.9252 30.589 52.0303 30.3133C52.1593 29.9795 52.657 29.6495 53.0348 29.5932C53.7868 29.4807 54.5794 29.6457 55.3278 29.5219C55.5447 29.4687 55.749 29.3717 55.9285 29.2367C56.108 29.1017 56.2591 28.9315 56.3729 28.7361C56.7046 28.1154 56.7857 27.3615 57.0936 26.7239C57.2779 26.3601 57.6834 25.8931 58.0004 25.8856C58.3175 25.8781 58.7525 26.3319 58.922 26.6901C59.2101 27.3442 59.4378 28.0242 59.6022 28.7211C59.7736 29.3344 60.1551 29.5782 60.7505 29.5632C61.4564 29.5444 62.1753 29.4788 62.8628 29.5894C63.2794 29.657 63.8747 29.9514 63.9687 30.2758C64.0627 30.6003 63.7365 31.1629 63.4508 31.4967C63.1172 31.8868 62.6324 32.1437 62.2122 32.4587C61.1062 33.2858 61.086 33.3589 61.5191 34.7223C61.6703 35.1968 61.9099 35.66 61.9559 36.1457C61.9965 36.5902 61.9781 37.2522 61.7145 37.4585C61.4509 37.6648 60.8574 37.4003 60.4095 37.3385C60.3837 37.3385 60.3616 37.2991 60.3376 37.2822C57.5304 35.3074 58.4944 35.2906 55.7038 37.2559C55.5129 37.4108 55.3013 37.5371 55.0752 37.631C54.4522 37.8411 53.914 37.4135 53.9177 36.5808Z" fill="#8DA4EA"/>
<path d="M38.8454 54.9648C38.8454 52.4368 38.8454 49.9013 38.8454 47.3808C38.8454 46.0024 39.5366 45.1566 40.6499 45.1304C41.7982 45.106 42.53 45.9762 42.5318 47.394C42.5318 52.5112 42.5318 57.6297 42.5318 62.7494C42.5318 64.126 41.8406 64.9736 40.7273 64.9999C39.579 65.0243 38.8491 64.1541 38.8454 62.7344C38.8417 60.1446 38.8454 57.5547 38.8454 54.9648Z" fill="#8DA4EA"/>
<path d="M28.5194 20.9383C28.5193 21.3113 28.4098 21.6759 28.205 21.9853C28.0002 22.2947 27.7093 22.5349 27.3696 22.6752C27.0299 22.8156 26.6568 22.8496 26.2979 22.7731C25.9391 22.6965 25.6108 22.5128 25.3552 22.2454C25.0995 21.9781 24.928 21.6392 24.8626 21.2721C24.7972 20.9051 24.8408 20.5265 24.988 20.1849C25.1352 19.8432 25.3792 19.5539 25.6888 19.3541C25.9983 19.1542 26.3595 19.0529 26.726 19.0629C27.2062 19.0761 27.6623 19.2795 27.9973 19.6298C28.3323 19.9801 28.5196 20.4496 28.5194 20.9383Z" fill="#8DA4EA"/>
<path d="M52.4923 20.9626C52.4876 20.5896 52.5923 20.2237 52.793 19.9116C52.9937 19.5995 53.2813 19.3554 53.619 19.2104C53.9568 19.0655 54.3294 19.0263 54.6892 19.0979C55.0489 19.1694 55.3795 19.3485 55.6387 19.6123C55.898 19.876 56.074 20.2124 56.1443 20.5784C56.2147 20.9445 56.1762 21.3235 56.0337 21.6672C55.8912 22.0109 55.6513 22.3035 55.3445 22.5077C55.0378 22.7119 54.6781 22.8184 54.3116 22.8136C53.831 22.8072 53.3719 22.6102 53.0321 22.2644C52.6922 21.9187 52.4985 21.4515 52.4923 20.9626Z" fill="#8DA4EA"/>
<path d="M40.7087 42.3175C40.3417 42.3223 39.9817 42.2155 39.6748 42.0109C39.3679 41.8062 39.1279 41.5131 38.9858 41.1688C38.8436 40.8246 38.8056 40.4451 38.8767 40.0788C38.9479 39.7125 39.1248 39.3762 39.385 39.1128C39.6451 38.8495 39.9766 38.6711 40.337 38.6006C40.6973 38.5301 41.0702 38.5707 41.4078 38.7171C41.7453 38.8635 42.0323 39.1091 42.2318 39.4224C42.4314 39.7357 42.5345 40.1026 42.5279 40.4759C42.5193 40.9632 42.3246 41.4279 41.985 41.7717C41.6455 42.1155 41.1877 42.3112 40.7087 42.3175Z" fill="#8DA4EA"/>
</g>
<defs>
<clipPath id="clip0_211_1903">
<rect width="47" height="48" fill="white" transform="translate(17 17)"/>
</clipPath>
</defs>
</svg>
